# xmcd CD database file
#
# Track frame offsets:
#	150
#	18363
#	57007
#
# Disc length: 1791 seconds
#
# Revision: 0
# Processed by: cddbd v1.5.2PL0 Copyright (c) Steve Scherf et al.
# Submitted via: CDex 1.70beta3
#
DISCID=1906fd03
DTITLE=Sun Ra - On Jupiter
DYEAR=1979
DGENRE=Jazz
TTITLE0=On Jupiter
TTITLE1=UFO
TTITLE2=Seductive Fantasy
EXTD=YEAR: 1979
EXTT0=
EXTT1=
EXTT2=
PLAYORDER=
